<!-- This Source Code Form is subject to the terms of the Mozilla Public
   - License, v. 2.0. If a copy of the MPL was not distributed with this
   - file, You can obtain one at https://mozilla.org/MPL/2.0/. -->
<svg xmlns="http://www.w3.org/2000/svg" width="150" height="144" fill="none" viewBox="0 0 150 144">
  <g clip-path="url(#a)">
    <path fill="url(#b)" d="M62.417 120.203a1 1 0 0 1-.106-.024c-.118-.033 10.735-3.777 9.101-13.75-.72-4.408-2.326-6.299-3.772-8.865a3.5 3.5 0 0 1-.22-.465 42 42 0 0 1-.522-1.438c1.117-.228 2.498-.578 4.45-1.356C89.056 87.232 89.748 69.24 88.58 51.809c-.9-13.46 14.019-19.213 14.019-19.213s-4.168 7.072 3.125 13.623c8.437 7.578 19.999 16.35 19.653 32.629-.017.758-.351 4.766-.351 4.766s.562-.269 1.3-1.038c.949-.986 1.324-1.61 1.324-1.61s.309 4.64-1.874 11.717c-3.251 10.535-19.291 33.321-62.047 27.312-.004-.566-.249-1.259-.97-2.139-2.033-2.489.33 2.481-.35 2.343z"/>
    <path fill="url(#c)" d="M106.417 76.87c1.164-4.93 1.666-10.757 1.666-10.757s1.286 4.615 1.671 10.362c.284 4.271.165 8.798-.01 9.79.298-.333 1.174-1.4 2.013-3.187 1.062-2.263 1.846-4.143 1.846-4.143-.031-.02.991 8.19-4.333 22.416-5.921 10.94-14.155 14.154-17.228 9.464-3.074-4.694 1.938-8.235 5.256-11.917 4.116-4.573 7.182-13.81 9.115-22.025z"/>
    <path fill="url(#d)" d="M99.682 78.107c-.02-.71.027-1.55-.147-2.232-.316-1.257-1.368-2.32-2.575-2.552-.316-.061-.578-.023-.89-.042-1.572-.085-3.164-.173-4.725-.432-2.128-.35-4.606-1.048-6.633-1.823-3.662-1.395-6.946-3.203-9.902-5.8-1.334-1.168-2.105-2.402-3.954-2.394v6.845c.759.046 1.483.343 2.07.86.38.335.735.72 1.117 1.056 2.374 2.085 5.014 3.538 7.963 4.663 1.63.621 3.623 1.184 5.334 1.465 1.257.208 2.536.278 3.8.347.251.016.463-.015.718.035.97.185 1.815 1.04 2.07 2.05.138.547.1 1.222.115 1.792a88 88 0 0 1-.247 9.031c-.574 7.543-2.25 15.194-6.228 21.561a31.6 31.6 0 0 1-2.976 4.016 29 29 0 0 1-1.75 1.839c-.609.589-4.401 2.597-4.401 2.597l9.628-2.251s12.26-6.309 15.174-24.64c.339-2.128.555-4.274.717-6.421.285-3.731-4.182-5.828-4.278-9.578z"/>
    <path fill="url(#e)" d="M78.184 39.891c-.591-1.515-4.166-.857-6.356-2.69-.833-.698-1.357-2.126-1.73-3.44-.202-.706-.36-1.38-.504-1.884-.853-3.031-1.099-4.507-2.487-8.935-1.238-3.956-2.71-7.253-4.42-7.424-1.69-.17-3.468 1.877-5.809 5.84-1.32 2.235-2.194 4.23-3.146 5.655-.048.067-.091.142-.139.21-.055.08-2.365-.115-3.416 0-.127.016-.234-.052-.341-.194-.476-.64-.897-2.841-2.686-6.452-2.178-4.388-3.86-5.412-5.753-5.01-1.6.336-3.492 4.97-4.813 9.212-1 3.214-.944 3.559-1.321 4.741-.4 1.262-.877 2.86-1.46 4.34-.635 1.62-1.405 3.1-2.353 3.853-2.305 1.833-4.582 1.226-5.368 2.646-.635 1.151.774 1.159.825 1.449 7.352-.54 13.784 7.014 16.56 5.431.902-.511 1.755-1.36 3.39-2.71 1.213-1.214 2.392-2.245 4.046-2.515 3.468-.56 5.32 3.04 8.423 5.356.052.04.1.084.147.123 1.071.25 2.69.175 4.872-.714 3.734-1.524 8.539-4.678 13.002-5.245-.31-.405 1.198-.706.833-1.635z"/>
    <path fill="url(#f)" d="M46.788 116.561c.063-.388.115-.761.142-1.067.1-1.25.115-2.805.064-4.551a14.8 14.8 0 0 1-1.877 5.376c.595.084 1.155.167 1.67.242"/>
    <path fill="url(#g)" d="M46.788 116.561c.063-.388.115-.761.142-1.067.1-1.25.115-2.805.064-4.551a14.8 14.8 0 0 1-1.877 5.376c.595.084 1.155.167 1.67.242" opacity=".6"/>
    <path fill="#ffc635" d="M50.899 42.02c-1.655.265-2.833 1.297-4.047 2.515-.925.924-1.873 1.956-3.067 2.84-2.666 1.976 1.254 8.729 9.669 7.84 6.13-.65 8.455-5.634 6.018-7.717q-.07-.062-.146-.123c-3.103-2.317-4.956-5.915-8.423-5.356zm.317 4.935c-1.63-.02-2.186-1.38-1.924-2.028.214-.523.94-1.083 2.265-1.07 1.175.011 1.77.622 1.913 1.134.198.722-.703 1.98-2.25 1.964z"/>
    <path fill="url(#h)" d="M31.193 104.073c-1.353 8.261 7.638 11.363 7.539 11.387l-.087.02c.46.056.908.107 1.34.163a2 2 0 0 0 .124-.671c-.092-1.908-.734-3.789-1.195-5.669 2.175-1.234-2.11-6.059-1.833-8.392.73-5.717.893-5.15-2.063-5.749-.166.48-.36.948-.603 1.393-1.222 2.218-2.607 3.765-3.222 7.518"/>
    <path fill="url(#i)" d="M61.794 119.88c3.717.568 5.356 1.27 8.34 1.425 3.344.17 4.388-.167 4.951-1.171.306-.547.457-1.123-.15-1.864l-13.197 1.404q.029.106.052.206z" opacity=".6"/>
    <path fill="url(#j)" d="M43.807 41.64c1.603-.032 2.623.373 2.702-1.016.175-3.024-.416-4.84-2.654-4.674-1.413.107-2.035 1.678-2.143 3.781-.135 2.587 1.242 1.924 2.095 1.908m1.087-4.178a.772.772 0 1 1 0 1.547.77.77 0 0 1-.773-.774c0-.428.345-.773.773-.773"/>
    <path fill="url(#k)" d="M44.174 42.183c.964-.047 2.277-.524 2.337-1.56.174-3.023-.417-4.84-2.654-4.673-1.413.107-2.036 1.678-2.143 3.781-.063 1.258.837 2.365 2.127 2.452a2.4 2.4 0 0 0 .337 0z"/>
    <path fill="#fff" d="M43.582 36.752c.429 0 .774.345.774.774a.77.77 0 0 1-.774.773.77.77 0 0 1-.773-.773c0-.429.345-.774.773-.774"/>
    <path fill="url(#l)" d="M59.315 42.172h.095c2.04-.08 2.424-1.909 2.21-3.619-.19-1.52-.94-2.73-2.627-2.602-1.412.107-2.035 1.678-2.142 3.78-.072 1.425 1.095 2.449 2.464 2.44"/>
    <path fill="#fff" d="M58.723 36.752c.428 0 .774.345.774.774a.77.77 0 0 1-.774.773.77.77 0 0 1-.774-.773c0-.429.345-.774.774-.774"/>
    <path fill="#00073a" d="M51.554 43.854c-1.326-.012-2.052.543-2.266 1.07-.262.648.298 2.008 1.925 2.028 1.547.016 2.447-1.241 2.25-1.964-.14-.511-.739-1.122-1.913-1.134z"/>
    <path fill="url(#m)" d="m60.957 119.757.15.024q.358.05.691.099c-.016-.067-.032-.139-.051-.206z" opacity=".6"/>
    <path fill="url(#n)" d="M70.093 33.77c-.203-.706-.361-1.38-.504-1.884-.853-3.031-1.1-4.507-2.488-8.935-1.238-3.96-2.71-7.257-4.42-7.427-1.69-.171-3.467 1.876-5.808 5.84-1.321 2.233-2.194 4.23-3.146 5.654 1.698.031 5.245.349 8.546 2.277 3.102 1.81 6.28 3.634 7.82 4.48z"/>
    <path fill="url(#o)" d="M49.83 27.025c-.476-.64-.897-2.841-2.686-6.452-2.178-4.384-3.86-5.408-5.753-5.007-1.6.337-3.492 4.972-4.813 9.213-1 3.214-.944 3.559-1.321 4.741-.4 1.262-.877 2.86-1.46 4.34 1.456-.797 4.765-2.69 7.999-4.574 2.999-1.75 6.2-2.174 8.034-2.262"/>
    <path fill="url(#p)" d="M45.12 116.318c-1.464-.207-3.17-.433-5.134-.675q-.652-.078-1.34-.163c-.564.116-2.877.492-4.56 2.552-.594.73-.797 1.301-.8 1.769 0 .314.078.583.201.821.556 1.076 3.254.976 4.81.56.88-.234 2.027-.496 3.292-.75a77 77 0 0 1 4.424-.754q.072-.255.155-.512c.222-.65.468-1.69.623-2.614q-.776-.116-1.67-.242z"/>
    <path fill="url(#q)" d="M74.94 118.269c-.353-.432-.964-.92-1.952-1.495-1.257-.73-2.376-1.048-2.225-1.274-.203.032-.401.063-.607.107-4.258.861-7.122 1.361-9.054 1.639.146.718.325 1.432.495 1.924q.085.25.151.5.029.106.052.206c3.718.568 5.356 1.27 8.34 1.425 3.344.17 4.388-.167 4.951-1.171.306-.547.457-1.123-.15-1.865z"/>
    <path fill="url(#r)" d="M79.933 43.42c-.139-1.377-1.797-1.44-2.337-1.71a.7.7 0 0 1-.246-.179c-4.463.572-9.268 3.722-13.001 5.245-2.183.893-3.801.964-4.873.714 2.44 2.084.112 7.067-6.018 7.718-8.416.888-12.335-5.86-9.67-7.84 1.195-.885 2.143-1.917 3.068-2.841-1.631 1.353-2.488 2.198-3.389 2.71-2.777 1.587-9.208-5.972-16.56-5.432a.12.12 0 0 1-.016.08c-.361.63-2.773.352-2.88 1.892-.092 1.262 2.26.774 2.249 1.349-.016.785-1.71 1.103-1.71 1.892 0 1.98 1.71.27 8.645 5.583 3.694 2.829 4.325 8.137 3.988 14.085-.167 2.987-1.4 9.59-1.575 13.089-.286 5.737.587 10.557-.29 14.35-.083.358-.186.699-.302 1.036-.166.48-.36.948-.603 1.392-1.222 2.218-2.606 3.766-3.221 7.519-1.353 8.261 7.637 11.363 7.538 11.387l-.087.02q.691.08 1.34.163c1.965.242 3.67.468 5.135.674a14.8 14.8 0 0 0 1.877-5.376c.047 1.746.035 3.301-.064 4.551a12 12 0 0 1-.143 1.067c-.154.921-.396 1.964-.623 2.615q-.089.255-.154.511c-.342 1.254-.342 2.429-.032 2.952.944 1.591 6.784 1.353 7.058-.527.135-.921.222-2.044.274-3.317a13 13 0 0 1 .658-.02q.24.002.477.016c.051 1.273.139 2.4.273 3.321.274 1.88 6.114 2.118 7.059.527.293-.496.305-1.575.016-2.757q-.023-.104-.052-.206a8 8 0 0 0-.15-.5c-.171-.492-.35-1.206-.497-1.925 1.933-.277 4.797-.777 9.054-1.638.21-.044.409-.076.607-.107.024-.036.076-.068.17-.103 3.818-1.318 8.146-7.162 6.147-12.621-1.147-3.127-3.266-4.607-4.456-6.694-2.464-4.32-.583-5.332-1.666-16.866-.472-5.023-1.79-10.942-2.325-14.005-1.06-6.079-.04-11.494 3.253-14.014 3.813-2.916 5.797-2.253 5.975-3.817.084-.738-1.11-.876-1.079-1.622.044-1.163 3.27-1.183 3.15-2.341z"/>
    <path fill="url(#s)" d="M52.641 99.49c-.293.35-.464 2.643-.845 2.833-.301.151-.452-1.797-.761-3.559-.084-.476-.405-2.02-.488-2.471-.393-2.203-.397-2.032-.723-3.83-.067 1.437-.198 1.818-.46 4.02-.127 1.067-.31 2.353-.46 3.063-.131.619-.333-1.686-.46-2.297-.611-2.948-1.04-3.734-1.865-6.666-.464-1.658-1.928-3.19-2.071-4.245.67 4.527 1.63 12.014 2.15 18.647.167 2.115.286 4.143.337 5.96.048 1.746.036 3.301-.063 4.551-.024.309-.075.678-.143 1.067-.155.92-.397 1.964-.623 2.614a6 6 0 0 0-.154.512c-.342 1.254-.342 2.428-.032 2.952.944 1.591 6.784 1.353 7.058-.528.135-.92.222-2.043.274-3.316.198-4.801-.139-11.852-.67-19.303z"/>
    <path fill="url(#t)" d="M58.572 80.962c1.238-10.125-5.154-13.859-5.154-13.859s-6.07 4.305-4.435 14.363c1.309 8.054 2.384 9.915 3.21 15.03.825 5.11 1.71 11.013 1.71 11.013s.745-5.705 1.745-11.14c.718-3.885 2.15-9.118 2.92-15.403z" opacity=".6"/>
    <path fill="url(#u)" d="M61.745 119.673a8 8 0 0 0-.151-.499c-.17-.492-.35-1.207-.496-1.925a17 17 0 0 1-.27-1.753c-.528-6.63 1.333-21.802 2.42-29.158-.143 1.06-1.607 2.59-2.07 4.245-.826 2.936-1.255 3.722-1.866 6.666-.127.61-.329 2.916-.46 2.297-.15-.71-.333-1.992-.46-3.063-.262-2.202-.393-2.583-.46-4.02-.326 1.798-.33 1.628-.722 3.83-.084.456-.405 1.995-.488 2.471-.31 1.762-.46 3.71-.762 3.559-.381-.19-.552-2.483-.845-2.833-.532 7.448-.87 14.498-.67 19.299.05 1.273.138 2.4.273 3.321.274 1.88 6.114 2.118 7.058.527.294-.496.306-1.575.016-2.757q-.023-.103-.051-.207z"/>
    <path fill="url(#v)" d="M46.659 104.982c-1.424-5.415-5.812-9.637-11.34-10.855-.083.357-.186.698-.3 1.035-.167.48-.362.949-.604 1.393-1.222 2.218-2.607 3.765-3.222 7.519-1.353 8.26 7.638 11.363 7.539 11.387l-.087.019q.691.082 1.34.163c1.965.242 3.67.468 5.135.675a14.8 14.8 0 0 0 1.876-5.376c-.051-1.818-.17-3.845-.337-5.96" opacity=".38"/>
    <path fill="url(#w)" d="M79.293 60.46a4 4 0 0 1 2.315.899c.427.352.825.753 1.251 1.105 2.655 2.183 5.604 3.703 8.901 4.876 1.823.65 4.051 1.238 5.96 1.532 1.404.215 2.833.294 4.246.365.282.012.513-.017.799.033 1.085.194 2.03 1.085 2.316 2.145.153.572.116 1.28.132 1.876a87 87 0 0 1-.277 9.444c-1.048 12.898-5.21 24.201-15.794 31.475-2.994 2.058-6.415 3.723-9.845 4.928v7.149c4.3-1.511 8.483-3.549 12.235-6.126 3.629-2.493 6.45-5.156 8.939-8.283 6.999-8.794 9.804-19.786 10.706-30.862.319-3.901.456-7.828.344-11.746-.02-.742.029-1.62-.161-2.332-.352-1.317-1.529-2.427-2.879-2.668-.356-.062-.646-.024-.994-.041-1.76-.087-3.537-.182-5.281-.451-2.377-.365-5.148-1.098-7.414-1.906-4.092-1.458-7.762-3.35-11.067-6.064-1.487-1.221-2.353-2.51-4.424-2.501v7.157z"/>
    <path fill="url(#x)" d="M79.29 60.46a4 4 0 0 0-2.315.899c-.427.352-.824.753-1.25 1.105-2.656 2.183-5.605 3.703-8.902 4.876-1.822.65-4.05 1.238-5.96 1.532-1.404.215-2.833.294-4.246.365-.281.012-.513-.017-.799.033-1.085.194-2.03 1.085-2.315 2.145-.154.572-.116 1.28-.133 1.876-.087 3.153.02 6.309.278 9.444 1.047 12.898 5.21 24.201 15.793 31.475 2.994 2.058 6.416 3.723 9.845 4.928v7.149c-4.3-1.511-8.483-3.549-12.235-6.126-3.628-2.493-6.45-5.156-8.938-8.283-7-8.794-9.804-19.786-10.707-30.862-.32-3.901-.456-7.828-.344-11.746.02-.742-.029-1.62.162-2.332.352-1.317 1.528-2.427 2.878-2.668.356-.062.646-.024.994-.041 1.76-.087 3.537-.182 5.281-.451 2.378-.365 5.149-1.098 7.414-1.906 4.092-1.458 7.762-3.35 11.067-6.064 1.487-1.221 2.353-2.51 4.424-2.501v7.157z"/>
    <path fill="url(#y)" d="M79.29 119.138c-3.43-1.206-6.851-2.871-9.846-4.929-10.587-7.274-14.745-18.573-15.793-31.475a87 87 0 0 1-.278-9.443c.017-.597-.024-1.3.133-1.877.286-1.056 1.23-1.95 2.315-2.145.286-.05.522-.02.8-.033 1.412-.07 2.841-.15 4.245-.365 1.914-.294 4.142-.882 5.96-1.532 3.297-1.177 6.246-2.697 8.901-4.875.427-.348.825-.754 1.251-1.106a4 4 0 0 1 2.316-.899v58.674z"/>
    <path fill="url(#z)" d="M79.293 60.459a4 4 0 0 1 2.315.899c.427.352.825.754 1.251 1.106 2.655 2.183 5.604 3.703 8.901 4.875 1.823.65 4.051 1.238 5.96 1.532 1.404.216 2.833.294 4.246.365.282.012.513-.017.799.033 1.085.194 2.03 1.085 2.316 2.145.153.572.116 1.28.132 1.877a87 87 0 0 1-.277 9.443c-1.048 12.898-5.21 24.201-15.794 31.475-2.994 2.058-6.415 3.723-9.845 4.929V60.459z"/>
  </g>
  <defs>
    <linearGradient id="b" x1="111.454" x2="78.228" y1="31.02" y2="127.557" gradientUnits="userSpaceOnUse">
      <stop offset=".05" stop-color="#ffeb49"/>
      <stop offset=".555" stop-color="#f60"/>
      <stop offset=".82" stop-color="#ff453f"/>
      <stop offset="1" stop-color="#fb2872"/>
    </linearGradient>
    <linearGradient id="c" x1="128.282" x2="74.443" y1="55.577" y2="135.663" gradientUnits="userSpaceOnUse">
      <stop stop-color="#ffeb49" stop-opacity=".6"/>
      <stop offset=".1" stop-color="#ffe747" stop-opacity=".58"/>
      <stop offset=".19" stop-color="#ffdd41" stop-opacity=".54"/>
      <stop offset=".28" stop-color="#ffcc38" stop-opacity=".46"/>
      <stop offset=".37" stop-color="#ffb42b" stop-opacity=".35"/>
      <stop offset=".46" stop-color="#ff951a" stop-opacity=".22"/>
      <stop offset=".55" stop-color="#ff7005" stop-opacity=".05"/>
      <stop offset=".57" stop-color="#f60" stop-opacity="0"/>
    </linearGradient>
    <linearGradient id="d" x1="127.278" x2="49.152" y1="62.821" y2="108.528" gradientUnits="userSpaceOnUse">
      <stop offset=".42" stop-color="#be0449" stop-opacity="0"/>
      <stop offset=".7" stop-color="#fb2872"/>
      <stop offset=".8" stop-color="#a31c5e"/>
      <stop offset=".9" stop-color="#4c104a"/>
      <stop offset=".97" stop-color="#15093e"/>
      <stop offset="1" stop-color="#00073a"/>
    </linearGradient>
    <linearGradient id="e" x1="51.927" x2="52.601" y1="17.99" y2="115.847" gradientUnits="userSpaceOnUse">
      <stop stop-color="#f60"/>
      <stop offset=".24" stop-color="#ff9c00"/>
      <stop offset=".31" stop-color="#ff9200"/>
      <stop offset=".44" stop-color="#ff7900"/>
      <stop offset=".52" stop-color="#f60"/>
      <stop offset=".96" stop-color="#fb2872"/>
    </linearGradient>
    <linearGradient id="f" x1="45.482" x2="46.105" y1="16.928" y2="120.295" gradientUnits="userSpaceOnUse">
      <stop stop-color="#fe5b15"/>
      <stop offset=".2" stop-color="#ff9c00"/>
      <stop offset=".29" stop-color="#ff9200"/>
      <stop offset=".43" stop-color="#ff7900"/>
      <stop offset=".52" stop-color="#f60"/>
      <stop offset="1" stop-color="#fb2872"/>
    </linearGradient>
    <linearGradient id="g" x1="48.133" x2="46.276" y1="44.974" y2="107.94" gradientUnits="userSpaceOnUse">
      <stop stop-color="#ffeb49"/>
      <stop offset=".36" stop-color="#ffb52b" stop-opacity=".6"/>
      <stop offset=".67" stop-color="#ff8a14" stop-opacity=".28"/>
      <stop offset=".89" stop-color="#ff7005" stop-opacity=".08"/>
      <stop offset="1" stop-color="#f60" stop-opacity="0"/>
    </linearGradient>
    <linearGradient id="h" x1="3.805" x2="40.997" y1="41.56" y2="115.381" gradientUnits="userSpaceOnUse">
      <stop stop-color="#ffe500"/>
      <stop offset=".45" stop-color="#ff6d00"/>
      <stop offset=".54" stop-color="#ff6709"/>
      <stop offset=".69" stop-color="#ff5622"/>
      <stop offset=".82" stop-color="#ff453f"/>
      <stop offset="1" stop-color="#fb0372"/>
    </linearGradient>
    <linearGradient id="i" x1="70.729" x2="68.868" y1="45.639" y2="108.604" gradientUnits="userSpaceOnUse">
      <stop stop-color="#ffeb49"/>
      <stop offset=".36" stop-color="#ffb52b" stop-opacity=".6"/>
      <stop offset=".67" stop-color="#ff8a14" stop-opacity=".28"/>
      <stop offset=".89" stop-color="#ff7005" stop-opacity=".08"/>
      <stop offset="1" stop-color="#f60" stop-opacity="0"/>
    </linearGradient>
    <linearGradient id="j" x1="43.982" x2="44.605" y1="16.933" y2="120.301" gradientUnits="userSpaceOnUse">
      <stop stop-color="#fe5b15"/>
      <stop offset=".2" stop-color="#ff9c00"/>
      <stop offset=".29" stop-color="#ff9200"/>
      <stop offset=".43" stop-color="#ff7900"/>
      <stop offset=".52" stop-color="#f60"/>
      <stop offset="1" stop-color="#fb2872"/>
    </linearGradient>
    <linearGradient id="k" x1="43.361" x2="44.412" y1="34.407" y2="41.394" gradientUnits="userSpaceOnUse">
      <stop offset=".16" stop-color="#a030b9"/>
      <stop offset=".88" stop-color="#00073a"/>
    </linearGradient>
    <linearGradient id="l" x1="58.501" x2="59.553" y1="34.407" y2="41.398" gradientUnits="userSpaceOnUse">
      <stop offset=".16" stop-color="#a030b9"/>
      <stop offset=".88" stop-color="#00073a"/>
    </linearGradient>
    <linearGradient id="m" x1="63.576" x2="61.715" y1="45.43" y2="108.394" gradientUnits="userSpaceOnUse">
      <stop stop-color="#ffeb49"/>
      <stop offset=".36" stop-color="#ffb52b" stop-opacity=".6"/>
      <stop offset=".67" stop-color="#ff8a14" stop-opacity=".28"/>
      <stop offset=".89" stop-color="#ff7005" stop-opacity=".08"/>
      <stop offset="1" stop-color="#f60" stop-opacity="0"/>
    </linearGradient>
    <linearGradient id="n" x1="62.508" x2="66.356" y1="27.573" y2="10.558" gradientUnits="userSpaceOnUse">
      <stop stop-color="#f60" stop-opacity="0"/>
      <stop offset=".03" stop-color="#f60" stop-opacity=".17"/>
      <stop offset=".07" stop-color="#f60" stop-opacity=".36"/>
      <stop offset=".11" stop-color="#f60" stop-opacity=".53"/>
      <stop offset=".16" stop-color="#f60" stop-opacity=".68"/>
      <stop offset=".2" stop-color="#f60" stop-opacity=".8"/>
      <stop offset=".25" stop-color="#f60" stop-opacity=".89"/>
      <stop offset=".3" stop-color="#f60" stop-opacity=".95"/>
      <stop offset=".36" stop-color="#f60" stop-opacity=".99"/>
      <stop offset=".43" stop-color="#f60"/>
      <stop offset=".72" stop-color="#fd4737"/>
      <stop offset="1" stop-color="#fb2872"/>
    </linearGradient>
    <linearGradient id="o" x1="41.087" x2="37.239" y1="27.133" y2="10.117" gradientUnits="userSpaceOnUse">
      <stop stop-color="#f60" stop-opacity="0"/>
      <stop offset=".03" stop-color="#f60" stop-opacity=".17"/>
      <stop offset=".07" stop-color="#f60" stop-opacity=".36"/>
      <stop offset=".11" stop-color="#f60" stop-opacity=".53"/>
      <stop offset=".16" stop-color="#f60" stop-opacity=".68"/>
      <stop offset=".2" stop-color="#f60" stop-opacity=".8"/>
      <stop offset=".25" stop-color="#f60" stop-opacity=".89"/>
      <stop offset=".3" stop-color="#f60" stop-opacity=".95"/>
      <stop offset=".36" stop-color="#f60" stop-opacity=".99"/>
      <stop offset=".43" stop-color="#f60"/>
      <stop offset=".71" stop-color="#fd4737"/>
      <stop offset=".98" stop-color="#fb2872"/>
    </linearGradient>
    <linearGradient id="p" x1="77.301" x2="18.625" y1="103.55" y2="126.935" gradientUnits="userSpaceOnUse">
      <stop offset=".02" stop-color="#be0449" stop-opacity="0"/>
      <stop offset=".51" stop-color="#fb2872"/>
      <stop offset=".67" stop-color="#a31c5e"/>
      <stop offset=".83" stop-color="#4c104a"/>
      <stop offset=".94" stop-color="#15093e"/>
      <stop offset="1" stop-color="#00073a"/>
    </linearGradient>
    <linearGradient id="q" x1="44.426" x2="84.467" y1="109.148" y2="124.804" gradientUnits="userSpaceOnUse">
      <stop stop-color="#be0449" stop-opacity="0"/>
      <stop offset=".41" stop-color="#fb2872"/>
      <stop offset="1" stop-color="#00073a"/>
    </linearGradient>
    <linearGradient id="r" x1="52.732" x2="48.705" y1="21.888" y2="137.225" gradientUnits="userSpaceOnUse">
      <stop offset=".02" stop-color="#ff7408"/>
      <stop offset=".03" stop-color="#ffaf28"/>
      <stop offset=".04" stop-color="#ffc534"/>
      <stop offset=".05" stop-color="#ffd63d"/>
      <stop offset=".06" stop-color="#ffe244"/>
      <stop offset=".07" stop-color="#ffe947"/>
      <stop offset=".11" stop-color="#ffeb49"/>
      <stop offset=".21" stop-color="#ffc936"/>
      <stop offset=".43" stop-color="#ff7508"/>
      <stop offset=".47" stop-color="#f60"/>
      <stop offset=".85" stop-color="#fb2872"/>
    </linearGradient>
    <linearGradient id="s" x1="48.412" x2="50.118" y1="86.929" y2="132.286" gradientUnits="userSpaceOnUse">
      <stop offset=".01" stop-color="#be0449" stop-opacity="0"/>
      <stop offset=".06" stop-color="#bf054a" stop-opacity=".04"/>
      <stop offset=".14" stop-color="#c2084c" stop-opacity=".16"/>
      <stop offset=".23" stop-color="#c70d51" stop-opacity=".36"/>
      <stop offset=".35" stop-color="#ce1457" stop-opacity=".63"/>
      <stop offset=".48" stop-color="#d71e5f" stop-opacity=".97"/>
      <stop offset=".49" stop-color="#d81f60"/>
      <stop offset=".56" stop-color="#d31e5f"/>
      <stop offset=".63" stop-color="#c71d5d"/>
      <stop offset=".7" stop-color="#b31a59"/>
      <stop offset=".77" stop-color="#971754"/>
      <stop offset=".84" stop-color="#73134e"/>
      <stop offset=".91" stop-color="#460e46"/>
      <stop offset=".98" stop-color="#13093d"/>
      <stop offset="1" stop-color="#00073a"/>
    </linearGradient>
    <linearGradient id="t" x1="53.601" x2="55.339" y1="75.693" y2="113.865" gradientUnits="userSpaceOnUse">
      <stop stop-color="#ffeb49"/>
      <stop offset=".09" stop-color="#ffe545" stop-opacity=".96"/>
      <stop offset=".24" stop-color="#ffd63d" stop-opacity=".84"/>
      <stop offset=".44" stop-color="#ffbd2f" stop-opacity=".66"/>
      <stop offset=".68" stop-color="#ff9a1c" stop-opacity=".4"/>
      <stop offset=".94" stop-color="#ff6f05" stop-opacity=".07"/>
      <stop offset="1" stop-color="#f60" stop-opacity="0"/>
    </linearGradient>
    <linearGradient id="u" x1="59.562" x2="57.678" y1="78.617" y2="132.624" gradientUnits="userSpaceOnUse">
      <stop stop-color="#d81f60" stop-opacity="0"/>
      <stop offset=".11" stop-color="#d81f60" stop-opacity=".01"/>
      <stop offset=".19" stop-color="#d81f60" stop-opacity=".06"/>
      <stop offset=".27" stop-color="#d81f60" stop-opacity=".14"/>
      <stop offset=".35" stop-color="#d81f60" stop-opacity=".25"/>
      <stop offset=".42" stop-color="#d81f60" stop-opacity=".39"/>
      <stop offset=".49" stop-color="#d81f60" stop-opacity=".57"/>
      <stop offset=".55" stop-color="#d81f60" stop-opacity=".77"/>
      <stop offset=".62" stop-color="#d81f60"/>
      <stop offset=".66" stop-color="#d21e5f"/>
      <stop offset=".71" stop-color="#c21c5c"/>
      <stop offset=".77" stop-color="#a81957"/>
      <stop offset=".83" stop-color="#841551"/>
      <stop offset=".9" stop-color="#551049"/>
      <stop offset=".97" stop-color="#1d0a3f"/>
      <stop offset="1" stop-color="#00073a"/>
    </linearGradient>
    <linearGradient id="w" x1="87.444" x2="104.596" y1="46.887" y2="155.032" gradientUnits="userSpaceOnUse">
      <stop stop-color="#e801df"/>
      <stop offset=".05" stop-color="#d203e2"/>
      <stop offset=".17" stop-color="#9f0aeb"/>
      <stop offset=".3" stop-color="#740ff2"/>
      <stop offset=".42" stop-color="#5313f7"/>
      <stop offset=".53" stop-color="#3c16fb"/>
      <stop offset=".64" stop-color="#2d18fe"/>
      <stop offset=".73" stop-color="#2919ff"/>
    </linearGradient>
    <linearGradient id="x" x1="53.892" x2="104.386" y1="56.467" y2="147.56" gradientUnits="userSpaceOnUse">
      <stop offset=".07" stop-color="#f742fd"/>
      <stop offset=".21" stop-color="#cf3afd"/>
      <stop offset=".49" stop-color="#882cfd"/>
      <stop offset=".73" stop-color="#5521fd"/>
      <stop offset=".9" stop-color="#351bfd"/>
      <stop offset="1" stop-color="#2919fd"/>
    </linearGradient>
    <linearGradient id="y" x1="64.316" x2="78.109" y1="58.694" y2="145.671" gradientUnits="userSpaceOnUse">
      <stop offset=".14" stop-color="#f742fd"/>
      <stop offset="1" stop-color="#2919fd"/>
    </linearGradient>
    <linearGradient id="z" x1="85.141" x2="100.384" y1="55.311" y2="141.752" gradientUnits="userSpaceOnUse">
      <stop offset=".05" stop-color="#ed58f7"/>
      <stop offset=".2" stop-color="#b847f8"/>
      <stop offset=".38" stop-color="#8536fa"/>
      <stop offset=".54" stop-color="#5d29fb"/>
      <stop offset=".69" stop-color="#4020fc"/>
      <stop offset=".81" stop-color="#2f1afc"/>
      <stop offset=".91" stop-color="#2919fd"/>
    </linearGradient>
    <radialGradient id="v" cx="0" cy="0" r="1" gradientTransform="translate(32.118 110.85)scale(24.8489)" gradientUnits="userSpaceOnUse">
      <stop stop-color="#ffeb49"/>
      <stop offset=".07" stop-color="#ffe546" stop-opacity=".96"/>
      <stop offset=".18" stop-color="#ffd73e" stop-opacity=".85"/>
      <stop offset=".32" stop-color="#ffc031" stop-opacity=".68"/>
      <stop offset=".49" stop-color="#ffa01f" stop-opacity=".44"/>
      <stop offset=".69" stop-color="#ff7709" stop-opacity=".13"/>
      <stop offset=".77" stop-color="#f60" stop-opacity="0"/>
    </radialGradient>
    <clipPath id="a">
      <path fill="#fff" d="M24.363 15.772H131.64v112.454H24.363z"/>
    </clipPath>
  </defs>
</svg>
